<svg xmlns="http://www.w3.org/2000/svg" width="900" height="430" viewBox="0 0 900 430" role="img" aria-label="Animated logos: JavaScript hopping, HTML5 swinging, CSS3 flipping and changing color, React atom spinning" xmlns:c2pa="http://c2pa.org/manifest"><metadata><c2pa:manifest>AAAWgmp1bWIAAAAeanVtZGMycGEAEQAQgAAAqgA4m3EDYzJwYQAAABZcanVtYgAAAEdqdW1kYzJtYQARABCAAACqADibcQN1cm46YzJwYToxZjEyMGU5NC1hMzAzLTQ1YTctYWZjZS02YTY1MTZkNTg5MTAAAAADl2p1bWIAAAApanVtZGMyYXMAEQAQgAAAqgA4m3EDYzJwYS5hc3NlcnRpb25zAAAAALxqdW1iAAAARGp1bWRjYm9yABEAEIAAAKoAOJtxE2MycGEuaW5ncmVkaWVudC52MwAAAAAYYzJzaE+fFShT4X/+U4XpNddoXrwAAABwY2JvcqNpZGM6Zm9ybWF0bWltYWdlL3N2Zyt4bWxqaW5zdGFuY2VJRHgseG1wOmlpZDo3Nzk4MWFlYy1lZTkwLTQzMDEtOWJjZC03OWE4OTI2NzIxOWFscmVsYXRpb25zaGlwaHBhcmVudE9mAAAB4mp1bWIAAABBanVtZGNib3IAEQAQgAAAqgA4m3ETYzJwYS5hY3Rpb25zLnYyAAAAABhjMnNo8R4KwTP/YWp4T2nDGnVbtQAAAZljYm9yomdhY3Rpb25zgqJmYWN0aW9ua2MycGEub3BlbmVkanBhcmFtZXRlcnOha2luZ3JlZGllbnRzgaJjdXJseC1zZWxmI2p1bWJmPWMycGEuYXNzZXJ0aW9ucy9jMnBhLmluZ3JlZGllbnQudjNkaGFzaFggKKP1e1gHT+OiAYqceCELkqZDltcuUS4Xed16uaqh/BukZmFjdGlvbngdY29tLmFudGhyb3BpYy5jbGF1ZGUucHJvdmlkZWRqcGFyYW1ldGVyc6F4H2NvbS5hbnRocm9waWMub3JpZ2luLWNvbmZpZGVuY2VndW5rbm93bmtkZXNjcmlwdGlvbnhmQ2xhdWRlIHByb3ZpZGVkIHRoaXMgZmlsZSBhdCB0aGUgcmVxdWVzdCBvZiBhIHVzZXIgYW5kIG1heSBoYXZlIGNyZWF0ZWQgb3IgbW9kaWZpZWQgdGhlIGZpbGUgY29udGVudHMubXNvZnR3YXJlQWdlbnShZG5hbWVmQ2xhdWRlcmFsbEFjdGlvbnNJbmNsdWRlZPUAAADIanVtYgAAAEBqdW1kY2JvcgARABCAAACqADibcRNjMnBhLmhhc2guZGF0YQAAAAAYYzJzaLYSbEgr+B26OiYbWfD3FFUAAACAY2JvcqVjYWxnZnNoYTI1NmNwYWRMAAAAAAAAAAAAAAAAZGhhc2hYIPXhpQZf/uT51sokFRN15fqrl9kHW8U0Pe0Hvs7ZEzjUZG5hbWVuanVtYmYgbWFuaWZlc3RqZXhjbHVzaW9uc4GiZXN0YXJ0GQEYZmxlbmd0aBkeBAAAAj5qdW1iAAAAJ2p1bWRjMmNsABEAEIAAAKoAOJtxA2MycGEuY2xhaW0udjIAAAACD2Nib3KlY2FsZ2ZzaGEyNTZpc2lnbmF0dXJleE1zZWxmI2p1bWJmPS9jMnBhL3VybjpjMnBhOjFmMTIwZTk0LWEzMDMtNDVhNy1hZmNlLTZhNjUxNmQ1ODkxMC9jMnBhLnNpZ25hdHVyZWppbnN0YW5jZUlEeCx4bXA6aWlkOjViMDZmYzkzLTVkOWQtNDhjNi1iYmRjLWVhMjAyOGZjYjE0NHJjcmVhdGVkX2Fzc2VydGlvbnODomN1cmx4LXNlbGYjanVtYmY9YzJwYS5hc3NlcnRpb25zL2MycGEuaW5ncmVkaWVudC52M2RoYXNoWCAoo/V7WAdP46IBipx4IQuSpkOW1y5RLhd53Xq5qqH8G6JjdXJseCpzZWxmI2p1bWJmPWMycGEuYXNzZXJ0aW9ucy9jMnBhLmFjdGlvbnMudjJkaGFzaFggla6hNX+9G7xzCn/oVQvWvAgGpKLupZaXJC3Tpig+iqiiY3VybHgpc2VsZiNqdW1iZj1jMnBhLmFzc2VydGlvbnMvYzJwYS5oYXNoLmRhdGFkaGFzaFggKV9dmiTtyRBWJwJlE9mZYHRDQoPghL5gD60mBM7flIx0Y2xhaW1fZ2VuZXJhdG9yX2luZm+jZG5hbWVvQW50aHJvcGljIEZpbGVzZ3ZlcnNpb25lMS4wLjBrc3BlY1ZlcnNpb25lMi40LjAAABA4anVtYgAAAChqdW1kYzJjcwARABCAAACqADibcQNjMnBhLnNpZ25hdHVyZQAAABAIY2JvctKEWQISogEmGCFZAgowggIGMIIBjaADAgECAhRA5aAK7sI50L64g/oGQgU9Z1UTADAKBggqhkjOPQQDAzBJMRcwFQYDVQQKEw5BbnRocm9waWMsIFBCQzEuMCwGA1UEAxMlQW50aHJvcGljIENvbnRlbnQgQ3JlZGVudGlhbHMgUm9vdCBDQTAeFw0yNjA4MDcxODQzNTZaFw0yODA4MDYxOTQzNTZaMEQxFzAVBgNVBAoTDkFudGhyb3BpYywgUEJDMSkwJwYDVQQDEyBBbnRocm9waWMgQ2xhdWRlIENvbnRlbnQgU2lnbmluZzBZMBMGByqGSM49AgEGCCqGSM49AwEHA0IABJh6CmvLUBgFFNU0vUKlOVtE6djd17L5SuwX0LemFisBM3dkd/3cyjxFA3Qo5S46fX0/ihY0VZ7mfb9KF703t5OjWDBWMA4GA1UdDwEB/wQEAwIHgDAVBgNVHSUEDjAMBgorBgEEAYPoXgIBMAwGA1UdEwEB/wQCMAAwHwYDVR0jBBgwFoAUzlHiBIFOZFsj+OPEz5o+nMHXXMIwCgYIKoZIzj0EAwMDZwAwZAIwMXMdFJ4BetLLVY7ORuE9noqbbAZOZn/aArXyTwFAZfKrPzxF2vPoJNf1+UCdg1XGAjBwX1zd9WGqYkqmL5SFqw1QySjr1zJfpJM9+1rdDwSPLMOPOjKuiXjoU/pUUeG9RwmhY3BhZFkNngAAAAAAAAAAAAAAAAAAAAAAAAAAAAAAAAAAAAAAAAAAAAAAAAAAAAAAAAAAAAAAAAAAAAAAAAAAAAAAAAAAAAAAAAAAAAAAAAAAAAAAAAAAAAAAAAAAAAAAAAAAAAAAAAAAAAAAAAAAAAAAAAAAAAAAAAAAAAAAAAAAAAAAAAAAAAAAAAAAAAAAAAAAAAAAAAAAAAAAAAAAAAAAAAAAAAAAAAAAAAAAAAAAAAAAAAAAAAAAAAAAAAAAAAAAAAAAAAAAAAAAAAAAAAAAAAAAAAAAAAAAAAAAAAAAAAAAAAAAAAAAAAAAAAAAAAAAAAAAAAAAAAAAAAAAAAAAAAAAAAAAAAAAAAAAAAAAAAAAAAAAAAAAAAAAAAAAAAAAAAAAAAAAAAAAAAAAAAAAAAAAAAAAAAAAAAAAAAAAAAAAAAAAAAAAAAAAAAAAAAAAAAAAAAAAAAAAAAAAAAAAAAAAAAAAAAAAAAAAAAAAAAAAAAAAAAAAAAAAAAAAAAAAAAAAAAAAAAAAAAAAAAAAAAAAAAAAAAAAAAAAAAAAAAAAAAAAAAAAAAAAAAAAAAAAAAAAAAAAAAAAAAAAAAAAAAAAAAAAAAAAAAAAAAAAAAAAAAAAAAAAAAAAAAAAAAAAAAAAAAAAAAAAAAAAAAAAAAAAAAAAAAAAAAAAAAAAAAAAAAAAAAAAAAAAAAAAAAAAAAAAAAAAAAAAAAAAAAAAAAAAAAAAAAAAAAAAAAAAAAAAAAAAAAAAAAAAAAAAAAAAAAAAAAAAAAAAAAAAAAAAAAAAAAAAAAAAAAAAAAAAAAAAAAAAAAAAAAAAAAAAAAAAAAAAAAAAAAAAAAAAAAAAAAAAAAAAAAAAAAAAAAAAAAAAAAAAAAAAAAAAAAAAAAAAAAAAAAAAAAAAAAAAAAAAAAAAAAAAAAAAAAAAAAAAAAAAAAAAAAAAAAAAAAAAAAAAAAAAAAAAAAAAAAAAAAAAAAAAAAAAAAAAAAAAAAAAAAAAAAAAAAAAAAAAAAAAAAAAAAAAAAAAAAAAAAAAAAAAAAAAAAAAAAAAAAAAAAAAAAAAAAAAAAAAAAAAAAAAAAAAAAAAAAAAAAAAAAAAAAAAAAAAAAAAAAAAAAAAAAAAAAAAAAAAAAAAAAAAAAAAAAAAAAAAAAAAAAAAAAAAAAAAAAAAAAAAAAAAAAAAAAAAAAAAAAAAAAAAAAAAAAAAAAAAAAAAAAAAAAAAAAAAAAAAAAAAAAAAAAAAAAAAAAAAAAAAAAAAAAAAAAAAAAAAAAAAAAAAAAAAAAAAAAAAAAAAAAAAAAAAAAAAAAAAAAAAAAAAAAAAAAAAAAAAAAAAAAAAAAAAAAAAAAAAAAAAAAAAAAAAAAAAAAAAAAAAAAAAAAAAAAAAAAAAAAAAAAAAAAAAAAAAAAAAAAAAAAAAAAAAAAAAAAAAAAAAAAAAAAAAAAAAAAAAAAAAAAAAAAAAAAAAAAAAAAAAAAAAAAAAAAAAAAAAAAAAAAAAAAAAAAAAAAAAAAAAAAAAAAAAAAAAAAAAAAAAAAAAAAAAAAAAAAAAAAAAAAAAAAAAAAAAAAAAAAAAAAAAAAAAAAAAAAAAAAAAAAAAAAAAAAAAAAAAAAAAAAAAAAAAAAAAAAAAAAAAAAAAAAAAAAAAAAAAAAAAAAAAAAAAAAAAAAAAAAAAAAAAAAAAAAAAAAAAAAAAAAAAAAAAAAAAAAAAAAAAAAAAAAAAAAAAAAAAAAAAAAAAAAAAAAAAAAAAAAAAAAAAAAAAAAAAAAAAAAAAAAAAAAAAAAAAAAAAAAAAAAAAAAAAAAAAAAAAAAAAAAAAAAAAAAAAAAAAAAAAAAAAAAAAAAAAAAAAAAAAAAAAAAAAAAAAAAAAAAAAAAAAAAAAAAAAAAAAAAAAAAAAAAAAAAAAAAAAAAAAAAAAAAAAAAAAAAAAAAAAAAAAAAAAAAAAAAAAAAAAAAAAAAAAAAAAAAAAAAAAAAAAAAAAAAAAAAAAAAAAAAAAAAAAAAAAAAAAAAAAAAAAAAAAAAAAAAAAAAAAAAAAAAAAAAAAAAAAAAAAAAAAAAAAAAAAAAAAAAAAAAAAAAAAAAAAAAAAAAAAAAAAAAAAAAAAAAAAAAAAAAAAAAAAAAAAAAAAAAAAAAAAAAAAAAAAAAAAAAAAAAAAAAAAAAAAAAAAAAAAAAAAAAAAAAAAAAAAAAAAAAAAAAAAAAAAAAAAAAAAAAAAAAAAAAAAAAAAAAAAAAAAAAAAAAAAAAAAAAAAAAAAAAAAAAAAAAAAAAAAAAAAAAAAAAAAAAAAAAAAAAAAAAAAAAAAAAAAAAAAAAAAAAAAAAAAAAAAAAAAAAAAAAAAAAAAAAAAAAAAAAAAAAAAAAAAAAAAAAAAAAAAAAAAAAAAAAAAAAAAAAAAAAAAAAAAAAAAAAAAAAAAAAAAAAAAAAAAAAAAAAAAAAAAAAAAAAAAAAAAAAAAAAAAAAAAAAAAAAAAAAAAAAAAAAAAAAAAAAAAAAAAAAAAAAAAAAAAAAAAAAAAAAAAAAAAAAAAAAAAAAAAAAAAAAAAAAAAAAAAAAAAAAAAAAAAAAAAAAAAAAAAAAAAAAAAAAAAAAAAAAAAAAAAAAAAAAAAAAAAAAAAAAAAAAAAAAAAAAAAAAAAAAAAAAAAAAAAAAAAAAAAAAAAAAAAAAAAAAAAAAAAAAAAAAAAAAAAAAAAAAAAAAAAAAAAAAAAAAAAAAAAAAAAAAAAAAAAAAAAAAAAAAAAAAAAAAAAAAAAAAAAAAAAAAAAAAAAAAAAAAAAAAAAAAAAAAAAAAAAAAAAAAAAAAAAAAAAAAAAAAAAAAAAAAAAAAAAAAAAAAAAAAAAAAAAAAAAAAAAAAAAAAAAAAAAAAAAAAAAAAAAAAAAAAAAAAAAAAAAAAAAAAAAAAAAAAAAAAAAAAAAAAAAAAAAAAAAAAAAAAAAAAAAAAAAAAAAAAAAAAAAAAAAAAAAAAAAAAAAAAAAAAAAAAAAAAAAAAAAAAAAAAAAAAAAAAAAAAAAAAAAAAAAAAAAAAAAAAAAAAAAAAAAAAAAAAAAAAAAAAAAAAAAAAAAAAAAAAAAAAAAAAAAAAAAAAAAAAAAAAAAAAAAAAAAAAAAAAAAAAAAAAAAAAAAAAAAAAAAAAAAAAAAAAAAAAAAAAAAAAAAAAAAAAAAAAAAAAAAAAAAAAAAAAAAAAAAAAAAAAAAAAAAAAAAAAAAAAAAAAAAAAAAAAAAAAAAAAAAAAAAAAAAAAAAAAAAAAAAAAAAAAAAAAAAAAAAAAAAAAAAAAAAAAAAAAAAAAAAAAAAAAAAAAAAAAAAAAAAAAAAAAAAAAAAAAAAAAAAAAAAAAAAAAAAAAAAAAAAAAAAAAAAAAAAAAAAAAAAAAAAAAAAAAAAAAAAAAAAAAAAAAAAAAAAAAAAAAAAAAAAAAAAAAAAAAAAAAAAAAAAAAAAAAAAAAAAAAAAAAAAAAAAAAAAAAAAAAAAAAAAAAAAAAAAAAAAAAAAAAAAAAAAAAAAAAAAAAAAAAAAAAAAAAAAAAAAAAAAAAAAAAAAAAAAAAAAAAAAAAAAAAAAAAAAAAAAAAAAAAAAAAAAAAAAAAAAAAAAAAAAAAAAAAAAAAAAAAAAAAAAAAAAAAAAAAAAAAAAAAAAAAAAAAAAAAAAAAAAAAAAAAAAAAAAAAAAAAAAAAAAAAAAAAAAAAAAAAAAAAAAAAAAAAAAAAAAAAAAAAAAAAAAAAAAAAAAAAAAAAAAAAAAAAAAAAAAAAAAAAAAAAAAAAAAAAAAAAAAAAAAAAAAAAAAAAAAAAAAAAAAAAAAAAAAAAAAAAAAAAAAAAAAAAAAAAAAAAAAAAAAAAAAAAAAAAAAAAAAAAAAAAAAAAAAAAAAAAAAAAAAAAAAAAAAAAAAAAAAAAAAAAAAAAAAAAAAAAAAAAAAAAAAAAAAAAAAAAAAAAAAAAAAAAAAAAAAAAAAAAAAAAAAAAAAAAAAAAAAAAAAAAAAAAAAAAAAAAAAAAAAAAAAAAAAAAAAAAAAAAAAAAAAAAAAAAAAAAAAAAAAAAAAAAAAAAAAAAAAAAAAAAAAAAAAAAAAAAAAAAAAAAAAAAAAAAAAAAAAAAAAAAAAAAAAAAAAAAAAAAAAAAAAAAAAAAAAAAAAAAAAAAAAAAAAAAAAAAAAAAAAAAAAAAAAAAAAAAAAAAAAAAAAAAAAAAAAAAAAAAAAAAAAAAAAAAAAAAAAAAAAAAAAAAAAAAAAAAAAAAAAAAAAAAAAAAAAAAAAAAAAAAAAAAAAAAAAAAAAAAAAAAAAAAAAAAAAAAAAAAAAAAAAAAAAAAAAAAAAAAAAAAAAAAAAAAAAAAAAAAAAAAAAAAAAAAAAAAAAAAAAAAAAAAAAAAAAAAAAAAAAAAAAAAAAAAAAAAAAAAAAAAAAAAAAAAAAAAAAAAAAAAAAAAAAAAAAAAAAAAAAAAAAAAAAAAAAAAAAAAAAAAAAAAAAAAAAAAAAAAAAAAAAAAAAAAAAAAAAAAAAAAAAAAAAAAAAAAAAAAAAAAAAAAAAAAAAAAAAAAAAAAAAAAAAAAAAAAAAAAAAAAAAAAAAAAAAAAAAAAAAAAAAAAAAAAAAAAAAAAAAAAAAAAAAAAAAAAAAAAAAAAAAAAAAAAAAAAAAAAAAAAAAAAAAAPZYQMLUu81INkkL3jP84JvgAQE0Ehhxk5eZAnutz8qtRgjoPKBsDqh7te33L9alRMiBzU1RX05aQ0NjweURKUfvZ6U=</c2pa:manifest></metadata>
<defs><linearGradient id="bg" x1="0" y1="0" x2="0" y2="1"><stop offset="0" stop-color="#0a0f1a"/><stop offset="1" stop-color="#151c2c"/></linearGradient>
<linearGradient id="gr1" x1="0" x2="1"><stop offset="0" stop-color="#58a6ff" stop-opacity="0"/><stop offset=".5" stop-color="#a371f7"/><stop offset="1" stop-color="#f778ba" stop-opacity="0"/></linearGradient>
<filter id="gj" x="-40%" y="-40%" width="180%" height="180%"><feDropShadow dx="0" dy="0" stdDeviation="9" flood-color="#F7DF1E" flood-opacity=".7"/></filter><filter id="gh" x="-40%" y="-40%" width="180%" height="180%"><feDropShadow dx="0" dy="0" stdDeviation="9" flood-color="#E34F26" flood-opacity=".7"/></filter><filter id="gc" x="-40%" y="-40%" width="180%" height="180%"><feDropShadow dx="0" dy="0" stdDeviation="9" flood-color="#1572B6" flood-opacity=".7"/></filter><filter id="gr" x="-40%" y="-40%" width="180%" height="180%"><feDropShadow dx="0" dy="0" stdDeviation="9" flood-color="#61DAFB" flood-opacity=".7"/></filter>
<pattern id="grid" width="36" height="36" patternUnits="userSpaceOnUse"><path d="M36 0H0V36" fill="none" stroke="#fff" stroke-opacity=".035"/></pattern>
<clipPath id="cp"><rect x="6" y="6" width="888" height="418" rx="20"/></clipPath></defs>
<style>
.tw{animation:tw 3s ease-in-out infinite;transform-box:fill-box;transform-origin:center} @keyframes tw{0%,100%{opacity:.1;transform:scale(.5)}50%{opacity:.9;transform:scale(1.5)}}
.fl{opacity:0;animation:fl linear infinite} @keyframes fl{0%{transform:translateY(0);opacity:0}15%{opacity:.35}100%{transform:translateY(-300px) rotate(20deg);opacity:0}}
.hop{animation:hop 1.5s infinite;transform-box:fill-box;transform-origin:50% 100%}
@keyframes hop{0%{transform:translateY(0) scale(1.16,.84);animation-timing-function:ease-out}18%{transform:translateY(-30px) scale(.9,1.14);animation-timing-function:ease-out}50%{transform:translateY(-92px) scale(1,1);animation-timing-function:ease-in}82%{transform:translateY(-30px) scale(.92,1.12);animation-timing-function:ease-in}100%{transform:translateY(0) scale(1.16,.84)}}
.bob{animation:bob 2.4s ease-in-out infinite} @keyframes bob{0%,100%{transform:translateY(8px)}50%{transform:translateY(-14px)}}
.bob2{animation:bob 3s ease-in-out infinite}
.flip{animation:flip 2.4s ease-in-out infinite;transform-box:fill-box;transform-origin:center} @keyframes flip{0%{transform:scaleX(1)}25%{transform:scaleX(0)}50%{transform:scaleX(-1)}75%{transform:scaleX(0)}100%{transform:scaleX(1)}}
.run{stroke-dasharray:24 18;animation:rn .9s linear infinite} @keyframes rn{to{stroke-dashoffset:-42}}
.cap{animation:cp 6.6s ease-in-out infinite;transform-box:fill-box;transform-origin:center} @keyframes cp{0%,100%{transform:scale(1)}8%{transform:scale(1.12)}16%{transform:scale(1)}}
</style>
<rect x="6" y="6" width="888" height="418" rx="20" fill="url(#bg)"/>
<g clip-path="url(#cp)"><rect width="900" height="430" fill="url(#grid)"/><circle class="tw" cx="657" cy="145" r="2" fill="#fff" style="animation-delay:-1.4s"/><circle class="tw" cx="727" cy="286" r="1" fill="#fff" style="animation-delay:-3.4s"/><circle class="tw" cx="814" cy="142" r="2" fill="#fff" style="animation-delay:-0.2s"/><circle class="tw" cx="180" cy="72" r="1.5" fill="#fff" style="animation-delay:-1.9s"/><circle class="tw" cx="272" cy="209" r="2" fill="#fff" style="animation-delay:-0.4s"/><circle class="tw" cx="275" cy="21" r="2" fill="#fff" style="animation-delay:-0.9s"/><circle class="tw" cx="306" cy="108" r="1.5" fill="#fff" style="animation-delay:-0.6s"/><circle class="tw" cx="836" cy="51" r="1" fill="#fff" style="animation-delay:-2.5s"/><circle class="tw" cx="475" cy="79" r="1" fill="#fff" style="animation-delay:-0.0s"/><circle class="tw" cx="25" cy="122" r="1" fill="#fff" style="animation-delay:-3.8s"/><circle class="tw" cx="189" cy="100" r="1.5" fill="#fff" style="animation-delay:-1.3s"/><circle class="tw" cx="223" cy="291" r="2" fill="#fff" style="animation-delay:-2.5s"/><circle class="tw" cx="206" cy="115" r="1.5" fill="#fff" style="animation-delay:-1.2s"/><circle class="tw" cx="389" cy="227" r="1" fill="#fff" style="animation-delay:-3.7s"/><circle class="tw" cx="290" cy="48" r="1.5" fill="#fff" style="animation-delay:-1.2s"/><circle class="tw" cx="637" cy="16" r="2" fill="#fff" style="animation-delay:-2.7s"/><circle class="tw" cx="366" cy="48" r="1.5" fill="#fff" style="animation-delay:-1.4s"/><circle class="tw" cx="333" cy="261" r="2" fill="#fff" style="animation-delay:-1.3s"/><circle class="tw" cx="512" cy="256" r="2" fill="#fff" style="animation-delay:-0.7s"/><circle class="tw" cx="282" cy="26" r="2" fill="#fff" style="animation-delay:-1.4s"/><circle class="tw" cx="433" cy="24" r="2" fill="#fff" style="animation-delay:-3.2s"/><circle class="tw" cx="394" cy="207" r="2" fill="#fff" style="animation-delay:-3.4s"/><circle class="tw" cx="483" cy="38" r="2" fill="#fff" style="animation-delay:-0.7s"/><circle class="tw" cx="221" cy="75" r="1" fill="#fff" style="animation-delay:-3.7s"/><circle class="tw" cx="493" cy="191" r="2" fill="#fff" style="animation-delay:-1.4s"/><circle class="tw" cx="557" cy="143" r="1.5" fill="#fff" style="animation-delay:-0.4s"/><circle class="tw" cx="786" cy="203" r="1.5" fill="#fff" style="animation-delay:-0.1s"/><circle class="tw" cx="113" cy="121" r="1.5" fill="#fff" style="animation-delay:-2.1s"/><circle class="tw" cx="391" cy="90" r="1.5" fill="#fff" style="animation-delay:-1.1s"/><circle class="tw" cx="739" cy="294" r="1" fill="#fff" style="animation-delay:-1.2s"/><circle class="tw" cx="344" cy="171" r="1" fill="#fff" style="animation-delay:-3.2s"/><circle class="tw" cx="661" cy="91" r="2" fill="#fff" style="animation-delay:-2.8s"/><circle class="tw" cx="515" cy="97" r="2" fill="#fff" style="animation-delay:-0.2s"/><circle class="tw" cx="635" cy="288" r="1.5" fill="#fff" style="animation-delay:-0.1s"/><text class="fl" x="778" y="330" font-family="'Courier New', Consolas, monospace" font-size="22" fill="#E34F26" style="animation-duration:12.0s;animation-delay:-5.5s">&lt;&gt;</text><text class="fl" x="169" y="330" font-family="'Courier New', Consolas, monospace" font-size="14" fill="#61DAFB" style="animation-duration:11.8s;animation-delay:-4.0s">( )</text><text class="fl" x="153" y="330" font-family="'Courier New', Consolas, monospace" font-size="22" fill="#F7DF1E" style="animation-duration:10.8s;animation-delay:-9.5s">&lt;/&gt;</text><text class="fl" x="192" y="330" font-family="'Courier New', Consolas, monospace" font-size="18" fill="#E34F26" style="animation-duration:7.9s;animation-delay:-10.1s">#</text><text class="fl" x="164" y="330" font-family="'Courier New', Consolas, monospace" font-size="18" fill="#F7DF1E" style="animation-duration:12.9s;animation-delay:-5.4s">[ ]</text><text class="fl" x="725" y="330" font-family="'Courier New', Consolas, monospace" font-size="22" fill="#E34F26" style="animation-duration:9.9s;animation-delay:-3.5s">&lt;&gt;</text><text class="fl" x="170" y="330" font-family="'Courier New', Consolas, monospace" font-size="14" fill="#1572B6" style="animation-duration:11.9s;animation-delay:-6.4s">=&gt;</text><text class="fl" x="662" y="330" font-family="'Courier New', Consolas, monospace" font-size="18" fill="#E34F26" style="animation-duration:8.1s;animation-delay:-5.9s">fn</text><text class="fl" x="820" y="330" font-family="'Courier New', Consolas, monospace" font-size="22" fill="#E34F26" style="animation-duration:7.4s;animation-delay:-9.5s">0x</text><text class="fl" x="731" y="330" font-family="'Courier New', Consolas, monospace" font-size="22" fill="#61DAFB" style="animation-duration:11.6s;animation-delay:-4.4s">#</text><text class="fl" x="875" y="330" font-family="'Courier New', Consolas, monospace" font-size="18" fill="#E34F26" style="animation-duration:11.6s;animation-delay:-8.3s">#</text><text class="fl" x="368" y="330" font-family="'Courier New', Consolas, monospace" font-size="22" fill="#F7DF1E" style="animation-duration:10.5s;animation-delay:-0.1s">fn</text><text class="fl" x="812" y="330" font-family="'Courier New', Consolas, monospace" font-size="18" fill="#E34F26" style="animation-duration:11.0s;animation-delay:-5.6s">fn</text><text class="fl" x="682" y="330" font-family="'Courier New', Consolas, monospace" font-size="22" fill="#E34F26" style="animation-duration:9.1s;animation-delay:-7.7s">&lt;&gt;</text>
<rect x="0" y="342" width="900" height="90" fill="#0d1117"/></g>
<rect x="6" y="340" width="888" height="3" fill="url(#gr1)"/>
<line class="run" x1="20" y1="354" x2="880" y2="354" stroke="#58a6ff" stroke-opacity=".35" stroke-width="2"/>
<g transform="translate(112,340)">
  <ellipse cy="6" rx="40" ry="8" fill="#000" opacity=".5"><animate attributeName="rx" values="44;22;44" keyTimes="0;.5;1" dur="1.5s" repeatCount="indefinite"/><animate attributeName="opacity" values=".55;.2;.55" keyTimes="0;.5;1" dur="1.5s" repeatCount="indefinite"/></ellipse>
  <g class="hop"><g transform="translate(-55,-112) scale(4.6)" filter="url(#gj)"><path d="M0 0h24v24H0V0zm22.034 18.276c-.175-1.095-.888-2.015-3.003-2.873-.736-.345-1.554-.585-1.797-1.14-.091-.33-.105-.51-.046-.705.15-.646.915-.84 1.515-.66.39.12.75.42.976.9 1.034-.676 1.034-.676 1.755-1.125-.27-.42-.404-.601-.586-.78-.63-.705-1.469-1.065-2.834-1.034l-.705.089c-.676.165-1.32.525-1.71 1.005-1.14 1.291-.811 3.541.569 4.471 1.365 1.02 3.361 1.244 3.616 2.205.24 1.17-.87 1.545-1.966 1.41-.811-.18-1.26-.586-1.755-1.336l-1.83 1.051c.21.48.45.689.81 1.109 1.74 1.756 6.09 1.666 6.871-1.004.029-.09.24-.705.074-1.65l.046.067zm-8.983-7.245h-2.248c0 1.938-.009 3.864-.009 5.805 0 1.232.063 2.363-.138 2.711-.33.689-1.18.601-1.566.48-.396-.196-.597-.466-.83-.855-.063-.105-.11-.196-.127-.196l-1.825 1.125c.305.63.75 1.172 1.324 1.517.855.51 2.004.675 3.207.405.783-.226 1.458-.691 1.811-1.411.51-.93.402-2.07.397-3.346.012-2.054 0-4.109 0-6.179l.004-.056z" fill="#F7DF1E"/></g></g></g>
<g><animateTransform attributeName="transform" type="rotate" values="-19 337 14;19 337 14;-19 337 14" keyTimes="0;.5;1" calcMode="spline" keySplines=".45 0 .55 1;.45 0 .55 1" dur="3.2s" repeatCount="indefinite"/>
  <line x1="337" y1="14" x2="337" y2="190" stroke="#8b949e" stroke-width="2.5"/><circle cx="337" cy="190" r="5" fill="#8b949e"/>
  <g transform="translate(282,192) scale(4.6)" filter="url(#gh)"><path d="M1.5 0h21l-1.91 21.563L11.977 24l-8.564-2.438L1.5 0zm7.031 9.75l-.232-2.718 10.059.003.23-2.622L5.412 4.41l.698 8.01h9.126l-.326 3.426-2.91.804-2.955-.81-.188-2.11H6.248l.33 4.171L12 19.351l5.379-1.443.744-8.157H8.531z" fill="#E34F26"/></g></g>
  <circle cx="337" cy="14" r="7" fill="#30363d" stroke="#8b949e"/>
  <ellipse cx="337" cy="346" rx="34" ry="7" fill="#000" opacity=".4"><animate attributeName="cx" values="277;397;277" keyTimes="0;.5;1" calcMode="spline" keySplines=".45 0 .55 1;.45 0 .55 1" dur="3.2s" repeatCount="indefinite"/></ellipse>
<g transform="translate(562,215)"><g class="bob"><g class="flip"><g transform="translate(-55,-55) scale(4.6)" filter="url(#gc)"><path d="M0 0v20.16A3.84 3.84 0 0 0 3.84 24h16.32A3.84 3.84 0 0 0 24 20.16V3.84A3.84 3.84 0 0 0 20.16 0Zm14.256 13.08c1.56 0 2.28 1.08 2.304 2.64h-1.608c.024-.288-.048-.6-.144-.84-.096-.192-.288-.264-.552-.264-.456 0-.696.264-.696.84-.024.576.288.888.768 1.08.72.288 1.608.744 1.92 1.296q.432.648.432 1.656c0 1.608-.912 2.592-2.496 2.592-1.656 0-2.4-1.032-2.424-2.688h1.68c0 .792.264 1.176.792 1.176.264 0 .456-.072.552-.24.192-.312.24-1.176-.048-1.512-.312-.408-.912-.6-1.32-.816q-.828-.396-1.224-.936c-.24-.36-.36-.888-.36-1.536 0-1.44.936-2.472 2.424-2.448m5.4 0c1.584 0 2.304 1.08 2.328 2.64h-1.608c0-.288-.048-.6-.168-.84-.096-.192-.264-.264-.528-.264-.48 0-.72.264-.72.84s.288.888.792 1.08c.696.288 1.608.744 1.92 1.296.264.432.408.984.408 1.656.024 1.608-.888 2.592-2.472 2.592-1.68 0-2.424-1.056-2.448-2.688h1.68c0 .744.264 1.176.792 1.176.264 0 .456-.072.552-.24.216-.312.264-1.176-.048-1.512-.288-.408-.888-.6-1.32-.816-.552-.264-.96-.576-1.2-.936s-.36-.888-.36-1.536c-.024-1.44.912-2.472 2.4-2.448m-11.031.018c.711-.006 1.419.198 1.839.63.432.432.672 1.128.648 1.992H9.336c.024-.456-.096-.792-.432-.96-.312-.144-.768-.048-.888.24-.12.264-.192.576-.168.864v3.504c0 .744.264 1.128.768 1.128a.65.65 0 0 0 .552-.264c.168-.24.192-.552.168-.84h1.776c.096 1.632-.984 2.712-2.568 2.688-1.536 0-2.496-.864-2.472-2.472v-4.032c0-.816.24-1.44.696-1.848.432-.408 1.146-.624 1.857-.63" fill="#1572B6"><animate attributeName="fill" values="#1572B6;#a371f7;#f778ba;#3fb950;#1572B6" dur="6s" repeatCount="indefinite"/></path></g></g></g></g>
  <ellipse cx="562" cy="346" rx="38" ry="7" fill="#000" opacity=".4"><animate attributeName="rx" values="42;28;42" dur="2.4s" repeatCount="indefinite"/></ellipse>
<g transform="translate(787,220)"><g class="bob2"><g transform="scale(1.18)" filter="url(#gr)"><g><animateTransform attributeName="transform" type="rotate" from="0" to="360" dur="14s" repeatCount="indefinite"/><g transform="rotate(0)"><ellipse rx="46" ry="17" fill="none" stroke="#61DAFB" stroke-width="4" opacity=".9"/><circle r="5.5" fill="#61DAFB"><animateMotion dur="2.6s" repeatCount="indefinite" path="M -46 0 a 46 17 0 1 0 92 0 a 46 17 0 1 0 -92 0" begin="-0.0s"/></circle></g><g transform="rotate(60)"><ellipse rx="46" ry="17" fill="none" stroke="#61DAFB" stroke-width="4" opacity=".9"/><circle r="5.5" fill="#61DAFB"><animateMotion dur="3.1s" repeatCount="indefinite" path="M -46 0 a 46 17 0 1 0 92 0 a 46 17 0 1 0 -92 0" begin="-0.9s"/></circle></g><g transform="rotate(120)"><ellipse rx="46" ry="17" fill="none" stroke="#61DAFB" stroke-width="4" opacity=".9"/><circle r="5.5" fill="#61DAFB"><animateMotion dur="3.6s" repeatCount="indefinite" path="M -46 0 a 46 17 0 1 0 92 0 a 46 17 0 1 0 -92 0" begin="-1.8s"/></circle></g></g><circle r="10" fill="#61DAFB"><animate attributeName="r" values="9;12;9" dur="1.6s" repeatCount="indefinite"/></circle></g></g></g>
  <ellipse cx="787" cy="346" rx="38" ry="7" fill="#000" opacity=".4"><animate attributeName="rx" values="42;26;42" dur="3s" repeatCount="indefinite"/></ellipse>
<g transform="translate(112,402)"><g class="cap" style="animation-delay:-0.0s"><rect x="-75.9" y="-17" width="151.8" height="32" rx="16" fill="#161b22" stroke="#F7DF1E" stroke-opacity=".7"/><text y="4" text-anchor="middle" font-family="'Courier New', Consolas, monospace" font-size="13" fill="#F7DF1E">console.log("hi")</text></g></g>
<g transform="translate(337,402)"><g class="cap" style="animation-delay:-1.1s"><rect x="-72.2" y="-17" width="144.4" height="32" rx="16" fill="#161b22" stroke="#E34F26" stroke-opacity=".7"/><text y="4" text-anchor="middle" font-family="'Courier New', Consolas, monospace" font-size="13" fill="#E34F26">&lt;div&gt;Hello&lt;/div&gt;</text></g></g>
<g transform="translate(562,402)"><g class="cap" style="animation-delay:-2.2s"><rect x="-68.5" y="-17" width="137.0" height="32" rx="16" fill="#161b22" stroke="#1572B6" stroke-opacity=".7"/><text y="4" text-anchor="middle" font-family="'Courier New', Consolas, monospace" font-size="13" fill="#1572B6">color: hotpink;</text></g></g>
<g transform="translate(787,402)"><g class="cap" style="animation-delay:-3.3000000000000003s"><rect x="-53.7" y="-17" width="107.4" height="32" rx="16" fill="#161b22" stroke="#61DAFB" stroke-opacity=".7"/><text y="4" text-anchor="middle" font-family="'Courier New', Consolas, monospace" font-size="13" fill="#61DAFB">useState(0)</text></g></g>

<rect x="6" y="6" width="888" height="418" rx="20" fill="none" stroke="#58a6ff" stroke-opacity=".25"/>
</svg>